<?xml version="1.0" encoding="UTF-8"?>
<svg id="Capa_2" data-name="Capa 2" xmlns="http://www.w3.org/2000/svg" viewBox="0 0 376.47 92.49">
  <defs>
    <style>
      .cls-1 {
        fill: #c1c1c1;
      }
    </style>
  </defs>
  <g id="Capa_1-2" data-name="Capa 1">
    <g>
      <polygon class="cls-1" points="0 4.5 0 17.78 0 36.54 0 51.99 0 73.05 0 74.9 0 88.5 63.89 88.5 63.89 73.05 17.87 73.05 17.87 51.99 61.08 51.99 61.08 36.54 17.87 36.54 17.87 17.78 63.89 17.78 63.89 2.33 0 2.33 0 4.5"/>
      <path class="cls-1" d="m111.89,2.33h-40.34v86.17h17.74v-25.91h22.6c16.64,0,30.13-13.49,30.13-30.13s-13.49-30.13-30.13-30.13Zm-2,45.06h-20.59v-29.62h20.59c8.18,0,14.81,6.63,14.81,14.81s-6.63,14.81-14.81,14.81Z"/>
      <path class="cls-1" d="m202.64,40.94c-4.1-2.16-10.44-4.25-19-6.27-8.56-2.02-13.95-3.96-16.17-5.83-1.75-1.47-2.62-3.23-2.62-5.29,0-2.26.93-4.06,2.8-5.41,2.89-2.1,6.9-3.15,12.01-3.15s8.67.98,11.15,2.94c2.48,1.96,4.09,5.18,4.85,9.66l18.72.18c-.28-8.01-2.33-14.33-9.22-20.14-5.6-4.72-14.37-7.63-25.31-7.63-6.7,0-12.42,1.43-17.16,3.45-4.74,2.02-8.12,5.13-10.88,8.83-2.34,3.14-4.38,7.41-4.42,13.48-.04,8.58,2.52,12.77,7.98,17.14,3.81,3.41,11.12,5.67,20.55,8.01,7.33,1.82,12.03,3.09,14.09,3.81,3.01,1.07,5.12,2.33,6.33,3.78,1.21,1.45,1.81,3.2,1.81,5.26,0,3.21-1.44,6.02-4.31,8.41-2.87,2.4-7.15,3.6-12.81,3.6-5.35,0-9.6-1.35-12.75-4.04-3.15-2.7-5.06-6.08-6.1-11.82l-17.78-.03c.94,13.9,5.15,18.03,11.06,23.12,5.91,5.09,14.37,7.64,25.39,7.64,7.57,0,13.89-1.06,18.97-3.18,5.07-2.12,10.07-5.35,12.84-9.71,2.77-4.36,4.47-9.05,4.47-14.05,0-5.51-1.38-10.5-3.9-13.71-2.72-3.46-6.48-6.88-10.58-9.04Z"/>
      <path class="cls-1" d="m260.73,0c-26.93,0-40.22,20.7-40.22,46.24s16.53,46.24,40.22,46.24,40.22-20.7,40.22-46.24S288.45,0,260.73,0Zm0,75.52c-13.52,0-22.95-13.56-22.95-30.3s7.59-30.3,22.95-30.3,22.95,13.56,22.95,30.3-9.42,30.3-22.95,30.3Z"/>
      <polygon class="cls-1" points="359.94 2.49 359.94 62.59 326.04 2.49 325.21 2.49 307.83 2.49 307.83 88.14 325.21 88.14 325.21 32 358.28 88.14 376.47 88.14 376.47 2.49 359.94 2.49"/>
    </g>
  </g>
</svg>