<?xml version="1.0" encoding="UTF-8"?>
<svg id="Capa_2" data-name="Capa 2" xmlns="http://www.w3.org/2000/svg" viewBox="0 0 174.52 110.66">
  <defs>
    <style>
      .cls-1 {
        fill: #e2e2e2;
      }

      .cls-2 {
        fill: #c1c1c1;
      }
    </style>
  </defs>
  <g id="Capa_1-2" data-name="Capa 1">
    <g>
      <path class="cls-2" d="m17.41,85.34l.91-4.01s-2.72-.96-7.4-.96S0,84.66,0,92.19s5.01,10.72,10.88,10.72,7.44-1.34,7.44-1.34v-10.56h-4.28v8.01s-9.8,2.55-9.8-7.09,10.88-8.07,13.16-6.59Z"/>
      <path class="cls-2" d="m23.87,89.47v13.21h4.18v-8.92c0-.83,1.15-4.61,4.4-3.59v-4.05s-2.87-.41-4.76,3.26v-3.03h-6.73v3.16l2.9-.03Z"/>
      <path class="cls-2" d="m165.93,89.47v13.21h4.18v-8.92c0-.83,1.15-4.61,4.4-3.59v-4.05s-2.87-.41-4.76,3.26v-3.03h-6.73v3.16l2.9-.03Z"/>
      <path class="cls-2" d="m33.91,86.44v3.06h2.79v9.01c0,.94.25,1.88.82,2.64.68.91,1.9,1.82,4.06,1.82,3.96,0,5.3-3.09,5.3-3.09v2.8h6.77v-2.95h-2.85v-13.3h-4.34v9.6s-.92,3.47-3.7,3.68c-.85.06-1.85-.68-1.98-1.85s0-11.43,0-11.43h-6.85Z"/>
      <path class="cls-2" d="m66,86.08c-3.4,0-5.08,2.83-5.08,2.83v-2.47h-6.51v2.94h2.87v21.28h3.85v-7.98h4.47c3.6,0,6.3-4.66,6.3-9.06s-2.49-7.53-5.89-7.53Zm-1.3,13.45h-3.55v-6.47c0-1.11,1.62-3.62,3.7-3.62s2.79,2.3,2.79,4.28-.3,5.81-2.94,5.81Z"/>
      <path class="cls-2" d="m85.31,86.57c-3.67-1.34-8.23,0-9.96,3.51-1.72,3.51-1.48,8.54.57,10.6,2.06,2.06,9.83,3.89,12.7-1.72,2.87-5.62.47-11-3.32-12.38Zm-.1,10.72c-1.38,3.36-5.1,2.26-6.09,1.03-.99-1.23-1.1-4.24-.28-6.34.83-2.1,3.01-2.9,4.77-2.1,1.82.83,2.97,4.05,1.59,7.41Z"/>
      <polygon class="cls-2" points="93 80.73 93 102.69 97.85 102.69 97.85 93.53 106.15 93.53 106.15 102.69 110.97 102.69 110.97 80.73 106.21 80.73 106.21 89.25 97.72 89.25 97.72 80.73 93 80.73"/>
      <path class="cls-2" d="m127.79,99.21v-9.26c0-1.5-2.9-3.96-6.35-3.96s-6.25.96-6.25.96l.35,4.12s3.29-1.4,4.92-1.4,2.9.48,2.94,2.9c0,0-9.19-.38-9.26,5.74-.06,6.13,7.21,5.46,9.41,2.2v2.18h7.31v-3.48h-3.06Zm-7.4.26c-1.45.15-2.75-1.23-1.3-2.83,1.45-1.6,4.15-1.09,4.15-1.09,0,0,.51,3.57-2.85,3.91Z"/>
      <path class="cls-2" d="m159.28,99.21v-9.26c0-1.5-2.9-3.96-6.35-3.96s-6.25.96-6.25.96l.35,4.12s3.29-1.4,4.92-1.4,2.9.48,2.94,2.9c0,0-9.19-.38-9.26,5.74-.06,6.13,7.21,5.46,9.41,2.2v2.18h7.31v-3.48h-3.06Zm-7.4.26c-1.45.15-2.75-1.23-1.3-2.83,1.45-1.6,4.15-1.09,4.15-1.09,0,0,.51,3.57-2.85,3.91Z"/>
      <path class="cls-2" d="m142.18,86.12v4.07s-1.84-.49-3.05-.4-1.74.62-1.72,1.4c.05,2.11,5.98,1.88,5.98,6.38s-4.52,5.25-7.79,5.25h-2.84v-3.85s2.35.1,3.62.1,2.01-.36,1.91-1.24c-.16-1.56-6.1-1.57-6.1-6.29,0-4.24,4.56-5.99,9.97-5.43Z"/>
    </g>
    <path class="cls-1" d="m71.37,56.32c-3.01,0-4.87-3.27-3.35-5.86l8.01-13.59,7.35-12.47c1.85-3.14,6.39-3.14,8.24,0l7.35,12.47,8.01,13.59c1.53,2.59-.34,5.86-3.35,5.86h-32.27Z"/>
    <g>
      <path class="cls-2" d="m92.62,63.21h-32.01c-3.33,0-5.39-3.61-3.7-6.48l5.27-8.93-3.96-7.16-10.05,17.04c-3.07,5.2.68,11.77,6.72,11.77h34.45l3.28-6.24Z"/>
      <path class="cls-2" d="m67.43,38.89l2.87-4.87,13.51-22.91c1.66-2.82,5.74-2.82,7.4,0l7.53,12.76,4.29-6.6-7.48-12.68c-3.61-6.13-12.47-6.13-16.09,0l-15.1,25.61-.91,1.55,3.98,7.14Z"/>
      <path class="cls-2" d="m126.85,57.68l-16.2-27.48-2.4-4.07-4.03,7.05.5.84,13.39,22.71c1.69,2.86-.38,6.48-3.7,6.48h-11.03l-3.29,6.24h20.03c6.04,0,9.79-6.57,6.72-11.77Z"/>
    </g>
  </g>
</svg>