<?xml version="1.0" encoding="UTF-8"?>
<svg id="Capa_2" data-name="Capa 2" xmlns="http://www.w3.org/2000/svg" viewBox="0 0 387.7 61.9">
  <defs>
    <style>
      .cls-1 {
        fill: #c1c1c1;
      }
    </style>
  </defs>
  <g id="Capa_2-2" data-name="Capa 2">
    <g id="Capa_1-2" data-name="Capa 1-2">
      <g>
        <polygon class="cls-1" points="0 .1 23 .1 23 22.6 46.8 .1 73.9 .1 42.2 30.6 73.9 61.9 46.4 61.9 23.6 39.3 23.6 61.9 0 61.9 0 .1"/>
        <path class="cls-1" d="m151.8,20.2v-2.1c0-10-8.1-18.1-18.1-18.1h-54.8v61.8h22.3v-22.6l23.8,22.6h26.8l-23.5-23.6h5.4c10.1.1,18.1-8,18.1-18h0Zm-27.3,4h-22.9v-8.9h22.9c2.5,0,4.5,2,4.5,4.4-.1,2.5-2.1,4.5-4.5,4.5h0Z"/>
        <path class="cls-1" d="m229.4.1h-53.4c-10.5,0-18.9,8.5-18.9,18.9v23.9c0,10.5,8.5,18.9,18.9,18.9h53.4v-15.6h-49.9v-7.4h42.2v-15.4h-42.8v-8.2h50.5V.1h0Z"/>
        <polygon class="cls-1" points="235.8 .1 235.8 15.7 261.2 15.7 261.2 61.9 283.5 61.9 283.5 15.6 308.7 15.6 308.7 .1 235.8 .1"/>
        <polygon class="cls-1" points="314.9 .1 387.7 .1 387.7 15.8 345.9 45.9 387.7 45.9 387.7 61.9 314.9 61.9 314.9 46 356.9 15.3 314.9 15.3 314.9 .1"/>
      </g>
    </g>
  </g>
</svg>