<?xml version="1.0" encoding="UTF-8"?>
<svg id="Capa_2" data-name="Capa 2" xmlns="http://www.w3.org/2000/svg" viewBox="0 0 768.8 290.98">
  <defs>
    <style>
      .cls-1 {
        fill: #58585a;
      }

      .cls-2 {
        fill: #ee8900;
      }

      .cls-3 {
        fill: #96bf0e;
      }

      .cls-4 {
        fill: #f08a00;
      }

      .cls-5 {
        fill: #008db1;
      }
    </style>
  </defs>
  <g id="Capa_1-2" data-name="Capa 1">
    <g>
      <path class="cls-1" d="m77.69,165.97c-3.82,5.66-10.98,9.48-19.2,9.48-14.64,0-22.15-8.44-22.15-18.84s9.92-18.84,22.15-18.84c8.22,0,15.38,3.82,19.2,9.48v-35.68c-6.62-2.37-13.87-3.69-21.47-3.69-31.04,0-56.21,21.82-56.21,48.74s19.05,48.74,56.21,48.74c7.61,0,14.86-1.32,21.47-3.69v-35.68Z"/>
      <path class="cls-1" d="m545.9,165.97c-3.82,5.66-10.98,9.48-19.2,9.48-14.64,0-22.15-8.44-22.15-18.84s9.92-18.84,22.15-18.84c8.22,0,15.38,3.82,19.2,9.48v-35.68c-6.62-2.37-13.87-3.69-21.47-3.69-31.04,0-56.21,21.82-56.21,48.74s19.05,48.74,56.21,48.74c7.61,0,14.86-1.32,21.47-3.69v-35.68Z"/>
      <polygon class="cls-1" points="245.69 204.19 245.69 109.13 280.22 109.13 314.32 163.03 312.22 145.56 312.22 109.13 347.27 109.13 347.27 204.19 312.22 204.19 278.74 153.56 280.53 168.71 280.53 204.19 245.69 204.19"/>
      <polygon class="cls-1" points="444.01 177.77 444.01 204.19 375.01 204.19 375.01 109.13 444.01 109.13 444.01 135.92 411.64 135.92 411.64 145.56 439.59 145.56 439.59 168.77 411.64 168.77 411.64 177.61 444.01 177.77"/>
      <polygon class="cls-1" points="569.22 109.08 569.22 140.03 589.9 140.03 589.9 203.98 626.54 203.98 626.54 139.56 646.91 139.56 646.91 109.08 569.22 109.08"/>
      <path class="cls-1" d="m732.33,109.08h-39.63l-36,94.9h38.68l3.32-11.84h27.95l3.63,11.84h38.53l-36.47-94.9Zm-27.63,61.26l8.29-30,8.29,30h-16.58Z"/>
    </g>
    <g>
      <path class="cls-2" d="m731.2,227.76c-1.35,0-2.52.45-3.48,1.33-.98.9-1.47,2-1.47,3.28s.5,2.45,1.48,3.37c.97.91,2.16,1.37,3.52,1.37s2.5-.45,3.46-1.34c.98-.91,1.47-2.02,1.47-3.31s-.5-2.43-1.48-3.34c-.97-.9-2.15-1.35-3.5-1.35Z"/>
      <g>
        <path class="cls-2" d="m571.97,242.94c-.86-.63-1.78-1.14-2.73-1.52-1.41-.56-2.94-.84-4.54-.84-3.49,0-6.49,1.22-8.93,3.64-2.44,2.42-3.68,5.55-3.68,9.31s1.28,6.72,3.8,9.18c2.52,2.45,5.54,3.69,8.99,3.69,1.54,0,2.99-.26,4.31-.76.92-.35,1.85-.86,2.77-1.53v1.69h7.79v-24.62h-7.79v1.76Zm-1.84,6.82c1.03.95,1.53,2.15,1.53,3.7s-.5,2.82-1.54,3.78c-1.04.97-2.32,1.44-3.91,1.44s-2.79-.48-3.84-1.47c-1.04-.98-1.55-2.2-1.55-3.74s.5-2.73,1.52-3.69c1.03-.97,2.28-1.44,3.85-1.44s2.9.46,3.94,1.42Z"/>
        <path class="cls-2" d="m620.84,242.94c-.86-.63-1.78-1.14-2.73-1.52-1.41-.56-2.94-.84-4.54-.84-3.49,0-6.49,1.22-8.93,3.64-2.44,2.42-3.68,5.55-3.68,9.31s1.28,6.72,3.8,9.18c2.52,2.45,5.54,3.69,8.99,3.69,1.54,0,2.99-.26,4.31-.76.92-.35,1.85-.86,2.77-1.53v1.69h7.79v-24.62h-7.79v1.76Zm-1.84,6.82c1.03.95,1.53,2.15,1.53,3.7s-.5,2.82-1.54,3.78c-1.04.97-2.32,1.44-3.91,1.44s-2.79-.48-3.84-1.47c-1.04-.98-1.55-2.2-1.55-3.74s.5-2.73,1.52-3.69c1.03-.97,2.28-1.44,3.85-1.44s2.9.46,3.94,1.42Z"/>
        <polygon class="cls-2" points="594.96 233.82 586.84 233.82 586.84 242.07 583.44 242.07 583.44 248.28 586.84 248.28 586.84 265.82 594.96 265.82 594.96 248.28 598.89 248.28 598.89 242.07 594.96 242.07 594.96 233.82"/>
        <path class="cls-2" d="m652.86,243.17c-1.02-.76-2.05-1.34-3.06-1.74-1.43-.56-2.97-.84-4.58-.84-3.43,0-6.42,1.16-8.9,3.45-2.74,2.54-4.13,5.94-4.13,10.11,0,3.9,1.31,7.17,3.9,9.73,2.58,2.55,5.77,3.84,9.5,3.84,1.7,0,3.25-.26,4.6-.77.89-.34,1.77-.82,2.61-1.43-.11,1.22-.32,1.88-.51,2.23-.37.68-1.03,1.25-1.96,1.7-.98.47-2.32.71-3.99.71-1.3,0-2.44-.17-3.38-.5-.9-.32-1.64-.79-2.21-1.4l-.22-.24h-8.68l.35,1.02c.62,1.81,1.59,3.36,2.89,4.62,1.29,1.26,2.88,2.22,4.74,2.86,1.83.63,4.11.96,6.77.96,5.05,0,8.91-1.44,11.45-4.28,1.92-2.12,2.9-5.43,2.9-9.83v-22.14h-8.09v1.94Zm-2.13,6.29c1.02.99,1.52,2.25,1.52,3.85s-.5,2.9-1.51,3.89c-1.03,1-2.31,1.49-3.91,1.49s-2.97-.5-4.05-1.53c-1.06-1.02-1.58-2.29-1.58-3.89s.51-2.77,1.54-3.78c1.05-1.02,2.35-1.52,3.98-1.52s2.97.49,4.01,1.49Z"/>
        <path class="cls-2" d="m685.75,241.84c-2.29-1.19-4.77-1.79-7.37-1.79-3.61,0-6.85,1.16-9.63,3.46-3.19,2.65-4.81,6.02-4.81,10.01,0,3.73,1.43,6.93,4.26,9.53,2.81,2.58,6.24,3.9,10.21,3.9,2.68,0,5.18-.59,7.42-1.76,2.25-1.18,4.05-2.83,5.35-4.92,1.31-2.1,1.97-4.38,1.97-6.79s-.66-4.66-1.96-6.73c-1.3-2.06-3.12-3.71-5.42-4.91Zm-7.28,16.55c-1.46,0-2.64-.44-3.58-1.35-.94-.9-1.39-2.06-1.39-3.54s.46-2.57,1.41-3.48c.96-.92,2.13-1.36,3.58-1.36s2.67.44,3.62,1.34c.94.9,1.39,2.04,1.39,3.49s-.47,2.61-1.42,3.52c-.96.92-2.15,1.37-3.61,1.37Z"/>
        <path class="cls-2" d="m711.88,240.66c-1.38,0-2.75.24-4.07.71-.97.35-2.02.89-3.13,1.62v-1.72h-8.24v25.05h8.24v-10.19c0-2.97.15-4.15.27-4.61.34-1.28.93-2.25,1.79-2.96.84-.69,1.83-1.03,3.02-1.03.9,0,1.62.19,2.21.59.58.39.97.96,1.21,1.73.18.59.4,2,.4,5.4v11.06h8.17v-16.32c0-2.92-.87-5.17-2.58-6.69-1.99-1.75-4.44-2.64-7.28-2.64Z"/>
        <rect class="cls-2" x="727.49" y="240.66" width="8.12" height="25.66"/>
        <path class="cls-2" d="m759.12,241.48v1.77c-.87-.64-1.79-1.15-2.76-1.53-1.43-.56-2.97-.85-4.59-.85-3.52,0-6.56,1.24-9.02,3.67-2.47,2.44-3.72,5.6-3.72,9.4s1.29,6.79,3.84,9.27c2.54,2.47,5.6,3.72,9.08,3.72,1.56,0,3.02-.26,4.36-.77.93-.35,1.87-.87,2.8-1.54v1.71h7.86v-24.86h-7.86Zm-.85,12.21c0,1.55-.48,2.77-1.46,3.71-.98.95-2.2,1.41-3.7,1.41s-2.65-.47-3.64-1.44c-.99-.96-1.47-2.16-1.47-3.67s.47-2.68,1.44-3.63c.97-.95,2.16-1.41,3.65-1.41s2.74.46,3.73,1.39c.98.93,1.45,2.12,1.45,3.63Z"/>
        <path class="cls-2" d="m539.69,229.72h-16.21v36.11h9.03v-12.31h7.18c5.76,0,10.42-4.67,10.42-10.42v-2.96c0-5.76-4.67-10.42-10.42-10.42Zm-3.2,16.97h-3.75v-9.39h3.75c2.59,0,4.7,2.1,4.7,4.7s-2.1,4.7-4.7,4.7Z"/>
      </g>
    </g>
    <path class="cls-5" d="m311.69,253.47c-1.35-17.13-15.45-30.86-32.6-31.82-7.46-.41-14.45,1.53-20.28,5.16-3.17,1.97-7.26,1.65-10.02-.87l-35.63-32.5c-3.96-3.61-5.06-9.41-2.67-14.2,4.09-8.21,6.29-17.53,6.01-27.39-.42-14.68-6.45-28.08-16.01-38.09-.22-4.48-.19-11.45,1.4-17.95,1.57-6.42,6.28-11.05,8.87-13.19,6.84,4.25,14.9,6.71,23.55,6.71,24.67,0,44.67-20,44.67-44.67S258.99,0,234.32,0s-44.67,20-44.67,44.67c0,11.61,4.43,22.18,11.69,30.12,0,2.26-.33,5.28-1.65,8.18-2.89,6.37-1.68,7.32-6,13.9-2.42,3.69-7.1,4.38-10.74,4.28-6.52-3.03-13.68-4.88-21.21-5.26-33.5-1.67-61.13,25.23-60.68,58.46.41,30.49,25.03,55.75,55.5,56.9,13.41.51,25.85-3.57,35.88-10.79,5.33-3.83,12.63-3.37,17.5,1.03l29.9,27.02c4.63,4.19,6.42,10.73,4.41,16.64-1.47,4.33-2.11,9.04-1.72,13.95,1.33,16.82,14.97,30.45,31.79,31.76,21.36,1.67,39.05-16.03,37.36-37.4ZM234.32,16.74c15.43,0,27.94,12.51,27.94,27.94s-12.51,27.94-27.94,27.94-27.94-12.51-27.94-27.94,12.51-27.94,27.94-27.94Zm-75.53,172.92c-19.94,0-36.11-16.17-36.11-36.11s16.17-36.11,36.11-36.11,36.11,16.17,36.11,36.11-16.16,36.11-36.11,36.11Zm118.32,88.32c-11.98,0-21.69-9.71-21.69-21.69s9.71-21.69,21.69-21.69,21.69,9.71,21.69,21.69-9.71,21.69-21.69,21.69Z"/>
    <circle class="cls-4" cx="158.79" cy="153.56" r="17.79"/>
    <circle class="cls-1" cx="234.32" cy="44.78" r="12.83"/>
    <circle class="cls-3" cx="277.11" cy="256.01" r="11.05"/>
  </g>
</svg>