<?xml version="1.0" encoding="UTF-8"?>
<svg id="Capa_2" data-name="Capa 2" xmlns="http://www.w3.org/2000/svg" viewBox="0 0 323.3 82.48">
  <defs>
    <style>
      .cls-1 {
        fill: #e2e2e2;
      }

      .cls-2 {
        fill: #c1c1c1;
      }
    </style>
  </defs>
  <g id="Capa_1-2" data-name="Capa 1">
    <g>
      <path class="cls-2" d="m13.09,0h299.01c6.18,0,11.2,5.02,11.2,11.2v61.86c0,5.2-4.22,9.42-9.42,9.42H0V13.09C0,5.86,5.86,0,13.09,0Z"/>
      <g>
        <path class="cls-1" d="m89.36,11.75H19.98v56.87h19.98l.04-51.09h5.6c.76,0,1.38.62,1.38,1.38v49.7h19.66V17.54h5.94c.76,0,1.38.62,1.38,1.38v49.7h19.83V16.17c0-2.44-1.98-4.43-4.43-4.43Z"/>
        <path class="cls-1" d="m138.87,32.43h-37.6v32.83c0,2.17,1.76,3.94,3.94,3.94h37.6v-32.83c0-2.17-1.76-3.94-3.94-3.94Zm-13.83,31.02h-5.74c-.63,0-1.15-.51-1.15-1.15v-24.7h5.74c.63,0,1.15.51,1.15,1.15v24.7Z"/>
        <path class="cls-1" d="m160.15,32.43h-7.69c-1.46,0-2.65,1.19-2.65,2.65v34.12h14.75v-31.79h7.85v-4.98h-12.25Z"/>
        <path class="cls-1" d="m216.26,32.17h-37.21v33.59c0,1.9,1.54,3.44,3.44,3.44h37.29v-5.11h-23.81l.02-9.64h24.49v-18.06c0-2.33-1.89-4.21-4.21-4.21Zm-13.47,15.19h-6.67v-9.73h5.17c.83,0,1.5.67,1.5,1.5v8.23Z"/>
        <rect class="cls-1" x="287.74" y="32.17" width="16.72" height="37.02"/>
        <path class="cls-1" d="m274.08,18.98v-6.21h-17.11v6.21h-13.53v-6.21h-17.11v6.21h-125.06v6.89h125.06v38.51c0,2.66,2.15,4.81,4.81,4.81h18.77v-4.98h-4.94c-.85,0-1.53-.69-1.53-1.53V25.88h13.53v38.51c0,2.66,2.15,4.81,4.81,4.81h18.77v-4.98h-4.94c-.85,0-1.53-.69-1.53-1.53V25.88h30.38v-6.89h-30.38Z"/>
      </g>
    </g>
  </g>
</svg>