<?xml version="1.0" encoding="UTF-8"?>
<svg id="Capa_2" data-name="Capa 2" xmlns="http://www.w3.org/2000/svg" viewBox="0 0 387.04 115.28">
  <defs>
    <style>
      .cls-1 {
        fill: #c1c1c1;
      }
    </style>
  </defs>
  <g id="Capa_1-2" data-name="Capa 1">
    <g>
      <path class="cls-1" d="m44.29,8.99v24.1h-10.54s-6.51-.43-6.64,4.29,6.3,8.18,11.66,11.42c5.36,3.24,31.88,14.12,32.39,34.52.51,20.4-13.03,30.07-30.17,31.02-17.14.95-40.99,0-40.99,0v-24.94h38.25s4.76-.45,4.76-4.84-3.47-6.96-9.02-10.37c-5.55-3.41-22.73-12.14-27.39-18.92C1.93,48.48.78,45.14.39,35.82c-.39-9.32,6.52-18.19,11.86-21.72s12.18-5.21,32.04-5.11Z"/>
      <path class="cls-1" d="m95.37,114.33h-20.23v-53.03c0-17.47,14.16-31.62,31.62-31.62h0c17.47,0,31.62,14.16,31.62,31.62v53.03s-20.31,0-20.31,0v-30.68h-18.77v-19.54h18.85v-2.61c0-6.32-5.12-11.44-11.44-11.44h0c-6.33,0-11.45,5.13-11.44,11.46l.09,52.81Z"/>
      <path class="cls-1" d="m162.81,114.67h-19.88l9.83-72.52c1.01-7.43,7.42-12.93,14.92-12.8h0c6.68.12,12.46,4.71,14.08,11.19l7.7,30.72,1.89,11.74,1.96-11.4,6.67-30.14c1.53-6.93,7.6-11.92,14.69-12.1h0c7.88-.19,14.64,5.58,15.68,13.4l9.55,71.9h-19.97l-5.74-67.19-12.87,59.71c-1.02,4.72-5.19,8.08-10.01,8.08h0c-4.83,0-9.01-3.38-10.02-8.1l-12.78-59.91-5.7,67.4Z"/>
      <path class="cls-1" d="m318.96,93.08h-12.08v21.34h-22.54v-21.34h-26.87c-9.73,0-17.65-7.84-17.75-17.57h0c-.03-3.06.74-6.08,2.24-8.76l32.35-57.62h25.2l-35.27,60.93h20.23v-28.11h22.54v27.64h11.96v23.48Z"/>
      <polygon class="cls-1" points="46.35 10.38 56.76 31.48 78.14 21.15 67.52 0 46.35 10.38"/>
      <path class="cls-1" d="m361.55,30.92v19.09h-12.89s-5.16-.34-5.26,3.39c-.1,3.73,4.99,6.48,9.23,9.04,4.24,2.56,25.25,11.18,25.65,27.33.41,16.15-10.32,23.81-23.89,24.57-13.57.75-32.46,0-32.46,0v-19.75h30.29s3.77-.36,3.77-3.83-2.75-5.51-7.14-8.21-18-9.61-21.69-14.98-4.6-8.02-4.91-15.4c-.31-7.38,5.34-14.16,9.39-17.2,4.94-3.71,14.18-4.12,29.91-4.05Z"/>
      <polygon class="cls-1" points="363.34 32.27 371.1 48 387.04 40.3 379.12 24.53 363.34 32.27"/>
    </g>
  </g>
</svg>