<?xml version="1.0" encoding="UTF-8"?>
<svg id="Capa_2" data-name="Capa 2" xmlns="http://www.w3.org/2000/svg" viewBox="0 0 400.63 132.43">
  <defs>
    <style>
      .cls-1 {
        fill: #e2e2e2;
      }

      .cls-2 {
        fill: #c1c1c1;
      }
    </style>
  </defs>
  <g id="Capa_1-2" data-name="Capa 1">
    <g>
      <ellipse class="cls-2" cx="200.31" cy="66.22" rx="203.01" ry="57.38" transform="translate(-8.33 34.94) rotate(-9.77)"/>
      <path class="cls-1" d="m75.21,57.08h10.5s3.29-13.5-14.59-13.5c-11.39,0-14.01,6.64-14.01,12.64s4.95,8.68,10.31,11.97,8.9,5.07,8.9,8.52-2.55,4.05-4.21,4.05-4.18-.67-4.18-3.22.06-4.79.06-4.79h-11.11v5.23c0,1.18,1.02,10.21,15.16,10.21s14.62-9.35,14.62-13.5-1.72-7.69-9.45-11.9-9.67-5.46-9.67-8.17,1.95-3.86,4.23-3.86,3.39,1.77,3.39,3.39.04,2.93.04,2.93Z"/>
      <path class="cls-1" d="m209.77,57.08h10.5s3.29-13.5-14.59-13.5c-11.39,0-14.01,6.64-14.01,12.64s4.95,8.68,10.31,11.97,8.9,5.07,8.9,8.52-2.55,4.05-4.21,4.05-4.18-.67-4.18-3.22.06-4.79.06-4.79h-11.11v5.23c0,1.18,1.02,10.21,15.16,10.21s14.62-9.35,14.62-13.5-1.72-7.69-9.45-11.9-9.67-5.46-9.67-8.17,1.95-3.86,4.23-3.86,3.39,1.77,3.39,3.39.04,2.93.04,2.93Z"/>
      <polygon class="cls-1" points="104.71 86.6 93.35 86.6 101.1 45.11 119.48 45.11 127.14 86.6 115.82 86.6 110.25 48.72 104.71 86.6"/>
      <polygon class="cls-1" points="145.65 86.6 135.18 86.6 136.12 45.11 153.01 45.11 158.08 77.02 163.35 45.11 180.33 45.11 181.1 86.6 170.97 86.6 170.37 49.24 163.22 86.6 153.14 86.6 145.99 49.11 145.65 86.6"/>
      <path class="cls-1" d="m230.37,45.28h10.34v31.21c0,2.29,1.86,4.15,4.15,4.15h.26c2.29,0,4.15-1.86,4.15-4.15v-31.21s9.87,0,9.87,0v31.28c0,6.06-4.92,10.98-10.98,10.98h-6.81c-6.06,0-10.98-4.92-10.98-10.98v-31.28Z"/>
      <polygon class="cls-1" points="281.1 85.96 270.82 85.96 270.82 45.28 286.2 45.28 295.84 77.72 295.84 45.28 305.54 45.28 305.54 85.96 290.86 85.96 280.59 51.94 281.1 85.96"/>
      <path class="cls-1" d="m331.14,63.24h14.49v12c0,6.8-5.52,12.32-12.32,12.32h-4.79c-6.8,0-12.32-5.52-12.32-12.32v-18.63c0-6.99,5.66-12.65,12.65-12.65h4.13c6.99,0,12.65,5.66,12.65,12.65v1.65h-10.4v-2.74c0-2.4-1.94-4.34-4.34-4.34h0c-2.4,0-4.34,1.94-4.34,4.34v20.52c0,2.1,1.7,3.8,3.8,3.8h1.53c2.1,0,3.8-1.7,3.8-3.8v-6.93h-4.51l-.02-5.87Z"/>
    </g>
  </g>
</svg>