<?xml version="1.0" encoding="UTF-8"?>
<svg id="Capa_2" data-name="Capa 2" xmlns="http://www.w3.org/2000/svg" viewBox="0 0 355.37 84.33">
  <defs>
    <style>
      .cls-1, .cls-2 {
        fill: #c1c1c1;
      }

      .cls-2 {
        fill-rule: evenodd;
      }
    </style>
  </defs>
  <g id="Capa_1-2" data-name="Capa 1">
    <g>
      <path class="cls-1" d="m253.27,47.02c-1.23,6.42-4.1,11.07-8.88,13.67-3.96,2.19-9.57,3.42-16.68,3.42h-9.16l-3.14,16.81c-5.19,0-8.2-.14-9.02-.55-1.5-.82-1.78-3.42-1.09-7.52l6.42-34.58c.27-1.78.68-3.69,1.37-5.33,1.09-1.64,3.01-2.6,4.92-2.6.82,0,2.6-.14,5.33-.14h9.84c7.11,0,12.3,1.09,15.58,3.28,4.24,2.6,5.6,7.11,4.51,13.53m-11.75,0c.55-3.01-.14-5.19-2.05-6.29-1.5-.96-3.96-1.37-7.52-1.37h-8.88l-2.87,15.86h9.16c5.06,0,7.93-.27,8.75-.68,1.5-.82,2.6-3.42,3.42-7.52m65.61,8.61c3.14-17.36-3.96-26.11-21.32-26.11s-27.75,8.61-31.03,25.97c-3.14,17.36,3.96,25.97,21.46,25.97s27.75-8.61,30.89-25.83m-11.62,0c-.55,3.96-1.5,7.79-2.6,11.62-.68,2.19-2.32,3.83-4.51,4.37-3.42.55-6.97.68-10.39.55-5.47,0-9.02-1.5-10.66-4.51-1.5-2.6-1.78-6.7-.68-12.03.55-3.96,1.5-7.93,2.73-11.75.68-2.19,2.46-3.69,4.51-4.37,3.42-.55,6.83-.68,10.25-.55,5.6,0,9.16,1.5,10.93,4.51,1.23,2.46,1.5,6.56.41,12.16m55.08,9.98c-.96,5.47-4.51,9.98-9.57,12.3-4.92,2.19-10.25,3.28-15.72,3.14h-18.86c.82-4.37,1.64-6.97,2.46-7.79,1.09-1.09,3.55-1.64,7.79-1.64h10.25c-1.37,0,.68.14,6.01.27,1.5.14,2.87-.14,4.24-.96.96-.68,1.64-2.19,2.05-4.51.55-3.01-2.32-5.19-8.61-6.42-4.65-.68-9.16-1.78-13.67-3.28-4.78-1.64-6.42-5.74-5.47-10.93,1.78-10.39,10.11-15.58,25.01-15.58h18.86c-.82,4.1-1.64,6.7-2.46,7.52-1.09,1.23-3.69,1.78-7.52,1.78h-11.07c15.17-.27,16.13-.27-6.01,0-1.37-.14-2.6.27-3.69,1.09-1.09,1.37-1.64,3.14-1.91,4.92-.27,1.78.96,3.01,3.69,3.96.41.14,4.1.96,11.07,2.46,4.78,1.09,8.06,2.46,10.11,4.1,2.87,2.05,3.83,5.33,3.01,9.57"/>
      <path class="cls-2" d="m50.16,49.21c-2.32-2.05-6.42-3.69-12.3-5.06-8.47-1.91-12.98-2.87-13.53-3.14-3.42-1.09-4.78-2.73-4.51-4.92.55-3.14,1.37-5.19,2.32-6.15,1.23-1.09,2.87-1.5,4.37-1.37h9.57-2.19c.82,0,2.05,0,3.42.14,3.01,0,4.78,0,5.6.14,5.6,0,11.89-.41,13.67-2.32.96-1.09,2.05-4.24,3.01-9.43h-23.1c-18.18,0-28.43,6.56-30.48,19.55-1.09,6.56,1.09,11.21,6.7,13.8,6.83,1.91,12.3,3.28,16.68,4.1,7.65,1.64,11.21,4.37,10.52,8.06-.55,2.87-1.37,4.78-2.6,5.6-1.5.96-3.28,1.37-5.06,1.23-6.56-.27-8.88-.41-7.24-.41h-12.57c-5.06,0-8.2.68-9.43,2.05-1.09,1.09-2.05,4.37-3.01,9.84h22.96c7.65,0,13.94-1.37,19.14-3.96,6.29-2.87,10.66-8.61,11.75-15.31.96-5.47-.27-9.57-3.69-12.44"/>
      <path class="cls-2" d="m190.26,37.04c.68-3.83.27-6.15-1.37-6.97h0c-1.37-.41-2.73-.41-4.1-.14l-39.77.14-5.6-30.07-20.78,29.8h-40.18l2.32-12.85h-13.67l-1.91,10.8c-.41,2.32-1.23,3.69-2.32,4.1-1.78.27-3.55.27-5.33.27l-1.64,9.02h6.83l-4.37,24.19c-1.09,6.15.27,10.39,4.1,12.98,2.87,1.91,7.79,2.87,14.49,2.87,1.78,0,3.69,0,5.6-.14.55-3.42.96-5.47.96-6.15,0-2.46-.82-3.96-2.46-4.65-2.05-.41-4.24-.55-6.42-.55-2.32,0-3.28-1.5-2.73-4.37l4.37-24.19h3.55c4.92,0,7.93-.68,9.16-1.91.41-.41.68-.96.96-1.37l15.31,12.44-20.91,33.08,39.64-20.23,28.43,21.19-3.69-32.39,30.89-16.81-6.42,35.67c-.96,4.92-.27,7.93,1.64,9.02,1.09.55,4.51.82,10.39.82l5.06-28.16c.68-3.42,1.09-5.6,1.23-6.42.68-2.32,1.5-3.83,2.46-4.37,1.78-.68,3.83-1.09,5.74-.82,1.91.14,3.83,0,5.6-.55,1.78-.82,3.01-2.46,3.42-4.37l1.09-6.42c-8.75-.27-15.31,2.19-19.55,7.52m-47.98,11.48l2.6,22.42-20.37-14.9-23.1,11.75,12.03-18.86-15.86-12.85,24.19-.14,14.35-20.5,3.96,21.19,24.6-.27-22.42,12.16Z"/>
      <path class="cls-2" d="m37.45,28.57h-1.23c5.47.14,8.34.14,6.83.14-2.05,0-3.96,0-5.6-.14"/>
    </g>
  </g>
</svg>