<?xml version="1.0" encoding="UTF-8"?>
<svg id="Capa_2" data-name="Capa 2" xmlns="http://www.w3.org/2000/svg" viewBox="0 0 591.98 145.42">
  <defs>
    <style>
      .cls-1 {
        fill: #2d4f9e;
      }
    </style>
  </defs>
  <g id="Capa_1-2" data-name="Capa 1">
    <g id="Capa_1-3" data-name="Capa 1">
      <g id="Grupo_8" data-name="Grupo 8">
        <path id="Trazado_23" data-name="Trazado 23" class="cls-1" d="m0,7.05v132.16h99.7v-24.31H27.88v-33.14h67.43v-24.31H27.88v-29.52h71.81V3.64H0v3.41Z"/>
        <path id="Trazado_24" data-name="Trazado 24" class="cls-1" d="m175.66,3.64h-62.95v135.57h27.68v-40.77h35.27c26.18-.25,47.2-21.68,46.95-47.86-.25-25.83-21.12-46.7-46.95-46.95Zm-3.12,70.89h-32.13V27.93h32.13c12.87.12,23.2,10.66,23.07,23.53-.12,12.69-10.38,22.95-23.07,23.07Z"/>
        <path id="Trazado_25" data-name="Trazado 25" class="cls-1" d="m318.36,64.39c-6.4-3.4-16.28-6.69-29.65-9.87-13.37-3.18-21.78-6.24-25.23-9.17-2.57-1.99-4.08-5.06-4.09-8.32-.08-3.39,1.56-6.6,4.37-8.51,4.51-3.3,10.76-4.95,18.74-4.95s13.53,1.53,17.4,4.62,6.38,8.15,7.57,15.19l29.21.28c-.44-12.6-3.64-22.54-14.39-31.67C313.55,4.58,299.87,0,282.79,0c-9.2-.04-18.32,1.81-26.78,5.43-6.82,2.99-12.69,7.8-16.98,13.89-4.56,6.12-6.99,13.57-6.9,21.2-.06,13.49,3.93,20.08,12.45,26.96,5.95,5.36,17.35,8.92,32.07,12.6,11.44,2.86,18.77,4.86,21.99,5.99,3.75,1.09,7.16,3.14,9.88,5.94,1.9,2.33,2.91,5.27,2.82,8.27-.08,5.21-2.56,10.09-6.73,13.23-4.48,3.78-11.16,5.66-19.99,5.66-8.35,0-14.98-2.12-19.89-6.36-4.92-4.25-7.89-9.56-9.52-18.59l-27.74-.04c1.47,21.86,8.04,28.36,17.26,36.36s22.42,12.01,39.62,12.01c10.1.3,20.16-1.4,29.6-5,7.91-3.33,15.71-8.41,20.04-15.27,4.39-6.55,6.81-14.22,6.97-22.1,0-8.66-2.15-16.51-6.09-21.56-4.48-5.81-10.1-10.65-16.51-14.22v-.02Z"/>
        <path id="Trazado_26" data-name="Trazado 26" class="cls-1" d="m410.22,0C368.2,0,347.46,32.55,347.46,72.71s25.79,72.71,62.76,72.71,62.76-32.55,62.76-72.71S453.47,0,410.22,0Zm0,118.75c-21.1,0-35.81-21.32-35.81-47.65s11.84-47.65,35.81-47.65,35.81,21.32,35.81,47.65-14.7,47.65-35.81,47.65Z"/>
        <path id="Trazado_27" data-name="Trazado 27" class="cls-1" d="m566.19,3.89v94.56L513.28,3.89h-28.41v134.76h27.12V50.32l51.61,88.33h28.38V3.89h-25.79Z"/>
      </g>
    </g>
  </g>
</svg>