<?xml version="1.0" encoding="UTF-8"?>
<svg id="Capa_2" data-name="Capa 2" xmlns="http://www.w3.org/2000/svg" viewBox="0 0 697.22 308.82">
  <defs>
    <style>
      .cls-1 {
        fill: #0977b4;
      }

      .cls-2 {
        fill: #61bfea;
      }

      .cls-3 {
        fill: #164580;
      }
    </style>
  </defs>
  <g id="Capa_1-2" data-name="Capa 1">
    <g id="Capa_1-2" data-name="Capa 1-2">
      <g id="Grupo_9" data-name="Grupo 9">
        <path id="Trazado_28" data-name="Trazado 28" class="cls-1" d="m69.56,207.66l3.64-16.02s-10.87-3.84-29.56-3.84S0,204.94,0,235.03s20.02,42.83,43.47,42.83,29.73-5.36,29.73-5.36v-42.19h-17.1v32.01s-39.15,10.18-39.15-28.34,43.47-32.24,52.58-26.33h.04Z"/>
        <path id="Trazado_29" data-name="Trazado 29" class="cls-1" d="m95.37,224.16v52.78h16.7v-35.64c0-3.32,4.6-18.42,17.58-14.34v-16.18s-11.47-1.64-19.02,13.03v-12.11h-26.89v12.62l11.59-.12.04-.04Z"/>
        <path id="Trazado_30" data-name="Trazado 30" class="cls-3" d="m662.94,224.16v52.78h16.7v-35.64c0-3.32,4.6-18.42,17.58-14.34v-16.18s-11.47-1.64-19.02,13.03v-12.11h-26.89v12.62l11.59-.12.04-.04Z"/>
        <path id="Trazado_31" data-name="Trazado 31" class="cls-1" d="m135.48,212.06v12.23h11.15v36c-.08,3.78,1.07,7.48,3.28,10.55,2.72,3.64,7.59,7.27,16.22,7.27,8.86.35,17.12-4.46,21.18-12.35v11.18h27.04v-11.79h-11.39v-53.13h-17.34v38.36s-3.67,13.86-14.78,14.7c-4.15-.05-7.58-3.25-7.91-7.39-.52-4.67,0-45.67,0-45.67h-27.37l-.08.04Z"/>
        <path id="Trazado_32" data-name="Trazado 32" class="cls-1" d="m263.69,210.62c-8.22.18-15.82,4.41-20.3,11.31v-9.87h-26.01v11.75h11.47v85.02h15.38v-31.88h17.86c14.38,0,25.17-18.62,25.17-36.2s-9.95-30.08-23.53-30.08l-.04-.04Zm-5.19,53.74h-14.18v-25.85c0-4.44,6.47-14.47,14.78-14.47s11.15,9.19,11.15,17.1-1.2,23.22-11.75,23.22Z"/>
        <path id="Trazado_33" data-name="Trazado 33" class="cls-1" d="m340.84,212.57c-14.66-5.35-32.89,0-39.79,14.03-6.87,14.03-5.92,34.12,2.28,42.35,8.23,8.23,39.27,15.54,50.74-6.87,11.47-22.45,1.88-43.95-13.26-49.46l.04-.05Zm-.4,42.83c-5.51,13.42-20.38,9.03-24.34,4.12s-4.39-16.94-1.12-25.33c2.56-7.41,10.64-11.34,18.05-8.78.34.12.68.25,1.01.39,7.27,3.32,11.87,16.18,6.36,29.6h.04Z"/>
        <path id="Trazado_34" data-name="Trazado 34" class="cls-3" d="m371.56,189.24v87.74h19.38v-36.6h33.16v36.6h19.26v-87.74h-19.02v34.04h-33.92v-34.04h-18.86Z"/>
        <path id="Trazado_35" data-name="Trazado 35" class="cls-3" d="m510.56,263.07v-37c0-5.99-11.59-15.82-25.37-15.82-8.47.04-16.88,1.33-24.97,3.83l1.4,16.46s13.16-5.59,19.66-5.59,11.59,1.92,11.75,11.59c0,0-36.72-1.52-37,22.93-.24,24.49,28.81,21.81,37.59,8.79v8.71h29.21v-13.91h-12.26Zm-29.57,1.04c-5.79.6-10.99-4.91-5.19-11.31s16.58-4.35,16.58-4.35c0,0,2.04,14.26-11.39,15.62v.04Z"/>
        <path id="Trazado_36" data-name="Trazado 36" class="cls-3" d="m636.36,263.07v-37c0-5.99-11.59-15.82-25.37-15.82-8.47.04-16.88,1.33-24.97,3.83l1.4,16.46s13.16-5.59,19.66-5.59,11.59,1.92,11.75,11.59c0,0-36.72-1.52-37,22.93-.24,24.49,28.81,21.81,37.59,8.79v8.71h29.22v-13.91h-12.28Zm-29.57,1.04c-5.79.6-10.99-4.91-5.19-11.31,5.79-6.39,16.58-4.35,16.58-4.35,0,0,2.04,14.26-11.39,15.62v.04Z"/>
        <path id="Trazado_37" data-name="Trazado 37" class="cls-3" d="m568.05,210.78v16.26c-3.97-1.06-8.07-1.6-12.19-1.6-4.82.36-6.95,2.48-6.87,5.59.2,8.43,23.9,7.51,23.9,25.49s-18.06,20.98-31.13,20.98h-11.35v-15.38s9.39.4,14.47.4,8.03-1.44,7.63-4.96c-.64-6.23-24.37-6.27-24.37-25.13,0-16.94,18.22-23.93,39.83-21.69l.08.04Z"/>
      </g>
      <g id="Grupo_1056" data-name="Grupo 1056">
        <path id="Trazado_38" data-name="Trazado 38" class="cls-2" d="m312.7,132c-5.03,0-9.11-4.08-9.11-9.12,0-1.62.44-3.22,1.26-4.61l18.77-31.84,17.22-29.22c3.14-5.33,10.01-7.11,15.34-3.97,1.64.97,3.01,2.33,3.97,3.97l17.22,29.22,18.78,31.84c2.55,4.33,1.11,9.91-3.22,12.47-1.4.83-3,1.26-4.63,1.26h-75.63.02Z"/>
        <g id="Grupo_10" data-name="Grupo 10">
          <path id="Trazado_39" data-name="Trazado 39" class="cls-3" d="m362.5,148.15h-75.01c-5.56,0-10.07-4.5-10.07-10.05,0-1.8.48-3.58,1.4-5.13l12.35-20.93-9.28-16.78-23.55,39.93c-5.13,8.7-2.24,19.91,6.46,25.04,2.81,1.66,6.02,2.54,9.29,2.54h80.73l7.69-14.62h0Z"/>
          <path id="Trazado_40" data-name="Trazado 40" class="cls-3" d="m303.47,91.16l6.72-11.4,31.67-53.69c2.82-4.79,8.99-6.38,13.78-3.57,1.47.87,2.7,2.09,3.57,3.57l17.65,29.9,10.05-15.47-17.53-29.71c-6.13-10.41-19.54-13.89-29.96-7.75-3.2,1.88-5.87,4.55-7.75,7.75l-35.37,60.01-2.13,3.63,9.32,16.73Z"/>
          <path id="Trazado_41" data-name="Trazado 41" class="cls-3" d="m442.71,135.19l-37.96-64.39-5.62-9.54-9.45,16.52,1.17,1.97,31.38,53.21c2.82,4.81,1.2,10.98-3.6,13.8-1.54.9-3.28,1.38-5.06,1.38h-25.84l-7.71,14.62h46.94c10.1,0,18.29-8.19,18.28-18.29,0-3.27-.88-6.47-2.54-9.29h.02Z"/>
        </g>
      </g>
    </g>
  </g>
</svg>