<?xml version="1.0" encoding="UTF-8"?>
<svg id="Capa_2" data-name="Capa 2" xmlns="http://www.w3.org/2000/svg" viewBox="0 0 591.98 151.02">
  <defs>
    <style>
      .cls-1 {
        fill: #fff;
      }

      .cls-2 {
        fill: #e74219;
      }
    </style>
  </defs>
  <g id="Capa_1-2" data-name="Capa 1">
    <g id="Capa_1-4" data-name="Capa 1-4">
      <g id="Grupo_13" data-name="Grupo 13">
        <path id="Trazado_47" data-name="Trazado 47" class="cls-2" d="m23.97,0h547.5c11.32,0,20.5,9.19,20.51,20.51v113.27c0,9.52-7.72,17.24-17.25,17.25H0V23.97C0,10.73,10.73,0,23.96,0c0,0,0,0,0,0Z"/>
        <g id="Grupo_12" data-name="Grupo 12">
          <path id="Trazado_48" data-name="Trazado 48" class="cls-1" d="m162.38,21.35H36.31v103.34h36.31l.07-92.84h10.18c1.38,0,2.51,1.12,2.51,2.51v90.31h35.72V31.87h10.79c1.38,0,2.51,1.12,2.51,2.51v90.31h36.03V29.38c0-4.45-3.61-8.05-8.05-8.05v.02Z"/>
          <path id="Trazado_49" data-name="Trazado 49" class="cls-1" d="m253.85,58.93h-68.32v59.66c0,3.95,3.21,7.16,7.16,7.16h68.33v-59.65c0-3.95-3.21-7.16-7.16-7.16h0Zm-25.13,56.35h-10.43c-1.15,0-2.09-.94-2.09-2.09h0v-44.88h10.43c1.15,0,2.09.94,2.09,2.09h0v44.88Z"/>
          <path id="Trazado_50" data-name="Trazado 50" class="cls-1" d="m293.24,58.93h-13.97c-2.66,0-4.82,2.16-4.82,4.82v61.98h26.8v-57.76h14.26v-9.05h-22.27Z"/>
          <path id="Trazado_51" data-name="Trazado 51" class="cls-1" d="m395.92,58.46h-67.61v61.04c0,3.45,2.8,6.25,6.25,6.25h67.75v-9.29h-43.25l.04-17.52h44.51v-32.82c0-4.22-3.42-7.65-7.65-7.65l-.03-.02Zm-24.48,27.6h-12.11v-17.67h9.39c1.5,0,2.72,1.21,2.73,2.72h0s0,14.95,0,14.95Z"/>
          <rect id="Rectángulo_37" data-name="Rectángulo 37" class="cls-1" x="527.36" y="58.46" width="30.38" height="67.27"/>
          <path id="Trazado_52" data-name="Trazado 52" class="cls-1" d="m502.54,34.49v-11.28h-31.09v11.28h-24.58v-11.28h-31.09v11.28h-227.25v12.52h227.24v69.98c0,4.82,3.9,8.74,8.73,8.74h34.12v-9.05h-8.98c-1.54,0-2.78-1.24-2.78-2.78h0V47.02h24.59v69.98c0,4.82,3.9,8.74,8.73,8.74h34.12v-9.05h-8.98c-1.54,0-2.78-1.24-2.78-2.78h0V47.03h55.2v-12.52h-55.2v-.02Z"/>
        </g>
      </g>
    </g>
  </g>
</svg>