<?xml version="1.0" encoding="UTF-8"?>
<svg id="Capa_2" data-name="Capa 2" xmlns="http://www.w3.org/2000/svg" viewBox="0 0 631.13 208.66">
  <defs>
    <style>
      .cls-1 {
        fill: #fff;
      }

      .cls-2 {
        fill: #034ea2;
      }
    </style>
  </defs>
  <g id="Capa_1-2" data-name="Capa 1">
    <g id="Capa_1-5" data-name="Capa 1-5">
      <g id="Grupo_15" data-name="Grupo 15">
        <ellipse id="Elipse_12" data-name="Elipse 12" class="cls-2" cx="315.57" cy="104.33" rx="319.82" ry="90.4" transform="translate(-13.13 55.06) rotate(-9.77)"/>
        <path id="Trazado_60" data-name="Trazado 60" class="cls-1" d="m118.48,89.95h16.55s5.18-21.27-22.99-21.27c-17.94,0-22.07,10.46-22.07,19.91s7.8,13.67,16.24,18.86,14.03,7.99,14.03,13.42c.28,3.26-2.13,6.12-5.39,6.4-.41.04-.83.03-1.24-.02-2.62,0-6.58-1.05-6.58-5.07s.09-7.55.09-7.55h-17.53v8.25c0,1.86,1.61,16.08,23.88,16.08s23.03-14.73,23.03-21.27-2.71-12.12-14.89-18.75-15.23-8.6-15.23-12.87,3.07-6.08,6.66-6.08c2.86-.09,5.25,2.15,5.34,5,0,.11,0,.23,0,.34,0,2.55.06,4.62.06,4.62h.02Z"/>
        <path id="Trazado_61" data-name="Trazado 61" class="cls-1" d="m330.47,89.95h16.54s5.18-21.27-22.99-21.27c-17.94,0-22.07,10.46-22.07,19.91s7.8,13.67,16.24,18.86,14.03,7.99,14.03,13.42c.28,3.26-2.13,6.12-5.39,6.4-.41.04-.83.03-1.24-.02-2.62,0-6.58-1.05-6.58-5.07s.09-7.55.09-7.55h-17.52v8.25c0,1.86,1.61,16.08,23.88,16.08s23.03-14.73,23.03-21.27-2.71-12.12-14.89-18.75c-12.18-6.63-15.23-8.6-15.23-12.87s3.07-6.08,6.66-6.08c2.86-.09,5.25,2.15,5.34,5,0,.11,0,.23,0,.34,0,2.55.06,4.62.06,4.62h.02Z"/>
        <path id="Trazado_62" data-name="Trazado 62" class="cls-1" d="m164.95,136.45h-17.9l12.21-65.36h28.96l12.06,65.36h-17.82l-8.77-59.68-8.74,59.68Z"/>
        <path id="Trazado_63" data-name="Trazado 63" class="cls-1" d="m229.44,136.45h-16.49l1.48-65.36h26.61l7.99,50.27,8.3-50.27h26.75l1.21,65.36h-15.95l-.94-58.86-11.27,58.86h-15.88l-11.27-59.06-.55,59.06Z"/>
        <path id="Trazado_64" data-name="Trazado 64" class="cls-1" d="m362.92,71.36h16.29v49.17c0,3.61,2.93,6.54,6.54,6.54h.41c3.61,0,6.54-2.93,6.54-6.54v-49.17h15.55v49.28c0,9.55-7.75,17.3-17.3,17.3h-10.73c-9.55,0-17.3-7.75-17.3-17.3v-49.28Z"/>
        <path id="Trazado_65" data-name="Trazado 65" class="cls-1" d="m442.84,135.45h-16.2v-64.09h24.23l15.19,51.11v-51.11h15.28v64.09h-23.13l-16.18-53.6.8,53.6Z"/>
        <path id="Trazado_66" data-name="Trazado 66" class="cls-1" d="m521.67,99.65h22.83v18.9c0,10.72-8.69,19.4-19.41,19.41h-7.55c-10.72,0-19.4-8.69-19.41-19.41v-29.35c0-11,8.91-19.93,19.91-19.93h6.52c11,0,19.93,8.91,19.93,19.91v2.62h-16.38v-4.32c0-3.77-3.05-6.83-6.83-6.84h0c-3.77,0-6.83,3.05-6.84,6.83h0v32.34c0,3.3,2.68,5.98,5.98,5.99h2.42c3.3,0,5.98-2.68,5.99-5.98h0v-10.92h-7.11l-.03-9.25h-.02Z"/>
      </g>
    </g>
  </g>
</svg>