<?xml version="1.0" encoding="UTF-8"?>
<svg id="Capa_2" data-name="Capa 2" xmlns="http://www.w3.org/2000/svg" viewBox="0 0 591.97 140.48">
  <defs>
    <style>
      .cls-1 {
        fill: #58585a;
      }

      .cls-2 {
        fill: #f6ae36;
      }

      .cls-2, .cls-3 {
        fill-rule: evenodd;
      }

      .cls-3 {
        fill: #c1c1c1;
      }
    </style>
  </defs>
  <g id="Capa_1-2" data-name="Capa 1">
    <g id="Capa_1-6" data-name="Capa 1-6">
      <g id="Grupo_16" data-name="Grupo 16">
        <path id="Trazado_67" data-name="Trazado 67" class="cls-1" d="m423.21,78.8c-2.03,10.61-6.78,18.3-14.69,22.6-6.54,3.62-15.81,5.66-27.56,5.66h-15.15l-5.19,27.79c-8.58,0-13.56-.23-14.91-.91-2.48-1.35-2.94-5.65-1.8-12.43l10.61-57.17c.4-3.02,1.16-5.98,2.26-8.81,1.84-2.69,4.88-4.29,8.13-4.3,1.35,0,4.3-.23,8.81-.23h16.27c11.75,0,20.34,1.81,25.76,5.42,7.02,4.3,9.26,11.75,7.45,22.36m-19.43,0c.91-4.98-.23-8.58-3.39-10.4-2.48-1.59-6.55-2.26-12.43-2.26h-14.69l-4.74,26.22h15.14c8.36,0,13.11-.44,14.47-1.12,2.48-1.35,4.3-5.65,5.65-12.43m108.47,14.24c5.19-28.7-6.55-43.16-35.24-43.16s-45.88,14.22-51.3,42.92c-5.19,28.7,6.55,42.93,35.48,42.93s45.88-14.23,51.07-42.69m-19.21,0c-.97,6.5-2.41,12.92-4.3,19.21-1.02,3.56-3.86,6.31-7.45,7.22-5.68.86-11.43,1.17-17.18.91-9.04,0-14.92-2.48-17.62-7.45-2.48-4.3-2.94-11.08-1.12-19.89.94-6.59,2.45-13.09,4.51-19.43,1.17-3.47,3.94-6.17,7.45-7.22,5.6-.86,11.28-1.17,16.94-.91,9.26,0,15.14,2.48,18.07,7.45,2.03,4.07,2.48,10.84.68,20.1m91.05,16.5c-1.57,8.98-7.5,16.6-15.82,20.34-8.17,3.65-17.05,5.42-25.99,5.19h-31.18c1.35-7.22,2.71-11.52,4.07-12.88,1.8-1.8,5.87-2.71,12.88-2.71h16.95c-2.26,0,1.12.23,9.94.44,2.45.27,4.92-.29,7.02-1.59,1.59-1.12,2.71-3.62,3.39-7.45.91-4.98-3.83-8.58-14.23-10.61-7.68-1.14-15.25-2.95-22.62-5.42-7.89-2.71-10.61-9.49-9.04-18.07,2.94-17.18,16.72-25.76,41.35-25.76h31.18c-1.35,6.78-2.71,11.08-4.07,12.43-1.8,2.03-6.1,2.94-12.43,2.94h-18.3c25.08-.44,26.67-.44-9.94,0-2.19-.21-4.38.43-6.1,1.8-1.74,2.39-2.83,5.2-3.16,8.13-.44,2.94,1.59,4.98,6.1,6.55.68.23,6.78,1.59,18.3,4.07,7.89,1.8,13.32,4.07,16.71,6.78,4.74,3.39,6.33,8.81,4.98,15.82"/>
        <path id="Trazado_68" data-name="Trazado 68" class="cls-2" d="m82.92,82.42c-3.83-3.39-10.61-6.1-20.33-8.36-14-3.16-21.46-4.74-22.36-5.19-5.65-1.8-7.89-4.51-7.45-8.13.91-5.19,2.26-8.58,3.83-10.17,2-1.71,4.61-2.52,7.22-2.26h12.2c1.89-.02,3.77.06,5.65.23,3.09-.1,6.18-.02,9.26.23,9.26,0,19.66-.68,22.6-3.83,1.59-1.8,3.39-7.02,4.98-15.59h-38.2c-30.05,0-47,10.84-50.39,32.32-1.8,10.84,1.8,18.53,11.08,22.81,11.29,3.16,20.33,5.42,27.58,6.78,12.65,2.71,18.53,7.22,17.39,13.32-.91,4.74-2.26,7.89-4.3,9.26-2.49,1.57-5.43,2.28-8.36,2.03-10.84-.44-14.69-.68-11.97-.68h-20.78c-8.37,0-13.56,1.13-15.59,3.39-1.8,1.8-3.39,7.23-4.98,16.27h37.96c10.91.32,21.75-1.93,31.64-6.55,10.3-4.66,17.58-14.16,19.42-25.31,1.59-9.04-.44-15.82-6.1-20.57"/>
        <path id="Trazado_69" data-name="Trazado 69" class="cls-2" d="m315.78,61.7c1.12-6.38.44-10.25-2.26-11.62h0c-2.2-.64-4.53-.72-6.78-.23l-65.75.23L231.74,0l-34.35,49.64h-66.43l3.83-21.41h-22.59l-3.16,17.99c-.68,3.87-2.03,6.14-3.83,6.83-2.92.37-5.87.52-8.81.45l-2.71,15.03h11.29l-7.22,40.3c-1.8,10.25.44,17.31,6.78,21.62,4.74,3.18,12.88,4.78,23.95,4.78,2.94,0,6.1,0,9.26-.23.91-5.7,1.59-9.11,1.59-10.25,0-4.1-1.35-6.6-4.07-7.75-3.5-.65-7.05-.96-10.61-.92-3.83,0-5.42-2.5-4.51-7.28l7.23-40.3h5.87c8.13,0,13.11-1.13,15.14-3.18.6-.71,1.13-1.47,1.59-2.28l25.31,20.72-34.57,55.11,65.53-33.7,47,35.3-6.09-53.96,51.07-28-10.61,59.42c-1.59,8.2-.44,13.21,2.71,15.03,1.8.92,7.45,1.37,17.18,1.37l8.36-46.92c1.12-5.7,1.8-9.33,2.03-10.7,1.12-3.87,2.48-6.38,4.07-7.28,3-1.24,6.26-1.71,9.49-1.37,3.12.28,6.26-.03,9.26-.92,2.93-1.4,5.02-4.1,5.65-7.28l1.8-10.7c-14.47-.45-25.31,3.65-32.32,12.53m-79.32,19.12l4.3,37.35-33.68-24.81-38.19,19.57,19.88-31.42-26.21-21.41,39.99-.23,23.72-34.15,6.55,35.3,40.67-.45-37.05,20.26h.04Z"/>
        <path id="Trazado_70" data-name="Trazado 70" class="cls-3" d="m61.91,47.6h-2.03c9.04.23,13.79.23,11.29.23-3.39,0-6.55,0-9.26-.23"/>
      </g>
    </g>
  </g>
</svg>