<?xml version="1.0" encoding="UTF-8"?>
<svg id="Capa_2" data-name="Capa 2" xmlns="http://www.w3.org/2000/svg" xmlns:xlink="http://www.w3.org/1999/xlink" viewBox="0 0 687.59 222">
  <defs>
    <style>
      .cls-1 {
        clip-path: url(#clippath);
      }

      .cls-2 {
        fill: none;
      }
    </style>
    <clipPath id="clippath">
      <rect class="cls-2" y="0" width="687.59" height="222"/>
    </clipPath>
  </defs>
  <g id="Capa_1-2" data-name="Capa 1">
    <g id="Grupo_1055" data-name="Grupo 1055">
      <g class="cls-1">
        <g id="Grupo_1054" data-name="Grupo 1054">
          <path id="Trazado_1015" data-name="Trazado 1015" d="m147.43,114.16l-15.64-15.64v44.24h15.64v-28.6Zm-62.56-47.12h38.08l-15.57-15.57-.07-.07h-20c14.17-1.17,24.7-13.61,23.52-27.78C109.71,10.15,98.38-.16,84.87,0v51.48h-.02L42.07,8.83c-4.74,2.46-9.21,5.4-13.33,8.79l40.48,40.33v88.58l31.3,31.27v-22.1l-15.64-15.64v-73.01Z"/>
          <path id="Trazado_1016" data-name="Trazado 1016" d="m100.51,67.12l-.07,75.53h15.62l.07-59.79-15.62-15.73Zm53.64,31.37l-15.62-15.62h-22.38l15.62,15.62h22.38Zm-100.55,33.3v-67.26L17.67,28.63c-3.38,4.12-6.34,8.57-8.81,13.3l29.1,29.1v22.12L2.67,57.84c-1.7,6.35-2.6,12.88-2.67,19.46l53.61,54.5ZM.28,99.68v22.1l100.23,100.22v-22.1L.28,99.68Zm178.44,23.32h-15.66v19.76h-15.62c-.28,14.22,11.02,25.98,25.25,26.26,14.08.28,25.78-10.81,26.25-24.88.01-.46.01-.92,0-1.38l-20.22-19.76Zm127.34,20.11l-11.73,22.29h-73.07l47.51-91.26h-42.06l11.73-22.33h73.09l-47.54,91.3h42.07Zm42.43-45.82h37.47v22.34h-37.47v23.49h37.47v22.31h-65.06V51.82h65.06v22.32h-37.47v23.15Zm89.82-45.47c14.47,0,22.82,1.53,28.95,5.45,7.83,4.78,12.59,14.47,12.59,25.39.26,7.36-2.51,14.5-7.67,19.76-3.16,3.43-7.33,5.76-11.91,6.65,6.98,1.52,10.05,3.05,13.63,6.46,5.1,4.76,7.67,11.41,7.67,19.76,0,10.54-4.27,19.91-11.58,24.85-5.63,3.75-12.45,5.28-24.01,5.28h-46.5V51.82h38.81Zm-11.23,47.01h6.8c12.61,0,17.9-3.91,17.9-13.3s-5.28-13.11-18.23-13.11h-6.46v26.41Zm0,46.83h10.05c11.58,0,16.51-3.92,16.51-13.11,0-5.45-2.03-9.38-6.14-11.6-3.07-1.7-5.78-2.03-14.13-2.03h-6.3v26.74Zm92.8,19.76h-27.61V51.82h36.79c14.98,0,25.87,2.73,33.37,8.51,7.85,6.14,12.26,16.36,12.26,28.79,0,17.36-7.31,28.77-21.98,34.57l25.02,41.73h-33.02l-24.86-43.95.02,43.95Zm8.86-59.46c11.23,0,18.04-5.76,18.04-15.66,0-9.34-6.65-15.83-16.34-15.83h-10.56v31.48h8.86Zm128.95,59.46h29.91l-37.27-113.57h-35.08l-37.45,113.57h29.08l7.03-22.34h36.8l6.97,22.34Zm-36.8-44.69l11.41-36.38,11.4,36.38h-22.81Z"/>
        </g>
      </g>
    </g>
  </g>
</svg>